<svg xmlns="http://www.w3.org/2000/svg" width="452" height="166" fill="none" viewBox="0 0 452 166"><g clip-path="url(#a)"><path fill="url(#b)" fill-rule="evenodd" d="M90.8 149c1.3 2 .9 4.5-1 5.8l-9.9 7a18 18 0 0 1-25-4.4L4.2 85a18 18 0 0 1 4.5-25l10-7a4.1 4.1 0 0 1 5.8 1l7.1-5a18 18 0 0 1 10.8-22.7L94.3 7.5a18 18 0 0 1 23 10.7l3.9 10.6c.7 2.1-.4 4.5-2.5 5.3l4.5 12.4a31 31 0 0 1 4.1-13.2 36.8 36.8 0 0 1 30.3-16.6c8 0 14.4 2.2 19.5 5.5a34 34 0 0 1 19.3-5.5c7.6 0 13.9 2.1 19 5.6A36.9 36.9 0 0 1 245 18a37.3 37.3 0 0 1 28.5 3.6l.7.2 1-.3a36.7 36.7 0 0 1 29.5-3.2c3.3-1 7-1.7 11-1.7 7.1 0 13.7 1.6 20.1 6.2 5.3-3.8 12-6.2 20.5-6.2 7.2 0 13.1 1.8 18 4.6a63 63 0 0 1 41-3.5c6 1.4 14.3 4.7 19.6 8.8a34.2 34.2 0 0 1 10.8 40.2 45.7 45.7 0 0 1-12.3 58 51.7 51.7 0 0 1-17.2 8.7 65 65 0 0 1-18.6 2.5 80.7 80.7 0 0 1-25.2-4 33.5 33.5 0 0 1-15.2 3.3 35.1 35.1 0 0 1-20.6-6.2c-5.3 3.8-12 6.2-20.5 6.2a34 34 0 0 1-20.9-6.5 34 34 0 0 1-21.1 6.5 34.1 34.1 0 0 1-29-14.4s-.2.1-.2 0c-.1.1-.2 0-.2 0h-.1a35 35 0 0 1-29 14.4c-8 0-14.4-2.2-19.7-5.6a35 35 0 0 1-19.7 5.6 35 35 0 0 1-22-7.2 4.1 4.1 0 0 1 .5-6.9 31.7 31.7 0 0 1-6.5-9.7 17.9 17.9 0 0 1-11.3 12.6l-21.5 7.8L90.9 149ZM276.2 22.9l-.6-.4.6.5Zm-2.4-.9Z" clip-rule="evenodd"/><path fill="url(#c)" fill-rule="evenodd" d="m128.5 117.2-51 35.7a13.8 13.8 0 0 1-19.2-3.4L7.6 77.2A13.8 13.8 0 0 1 11 57.9L35.2 41a13.8 13.8 0 0 1 8.6-16.3l52-18.9a13.8 13.8 0 0 1 17.6 8.3l30.2 83a13.8 13.8 0 0 1-8.2 17.6l-7 2.5Z" clip-rule="evenodd"/><path fill="#912215" fill-rule="evenodd" d="M72.5 140.3a3.9 3.9 0 0 1 1 6.9 7 7 0 0 1-9.5-1.7L13.3 73.2a6.9 6.9 0 0 1 1.7-9.6L28.8 54a2.8 2.8 0 0 1 4.1 1.3l26.4 72.4a20.7 20.7 0 0 0 13.2 12.6Z" clip-rule="evenodd"/><path fill="url(#d)" fill-rule="evenodd" d="M414 17.7c11.4 2.6 21.2 7.8 26 18.5a28.8 28.8 0 0 1 .5 23c-.6 1.5-.5 3.3.3 4.8a40.2 40.2 0 0 1-10.8 50.9 48 48 0 0 1-15.5 7.8c-5 1.5-10.7 2.3-17 2.3a75.6 75.6 0 0 1-23.5-3.8 5.1 5.1 0 0 0-4.2.3 28 28 0 0 1-12.7 2.8c-7 0-12.4-2-16.5-4.6-2.6-1.7-5.3-2-7.3-.6a28.8 28.8 0 0 1-17.3 5.2c-7.3 0-13-2-17.6-5.4a5.6 5.6 0 0 0-6.5 0 29.5 29.5 0 0 1-18 5.4c-9.5 0-16.5-3.5-21.6-8.8-1-1-2.1-2.6-2.8-3.5-1-1.2-2-2.5-4.7-2.5s-4 1.8-4.8 2.6c-1.2 1.3-3.7 4.4-5.7 6a29.4 29.4 0 0 1-18.7 6.2c-6.8 0-12.3-1.8-16.8-4.8a5.5 5.5 0 0 0-6 0 29.6 29.6 0 0 1-16.7 4.8 29.6 29.6 0 0 1-28.8-20.3l-17.4-48.6a27.8 27.8 0 0 1 3.1-26.5 28 28 0 0 1 24.6-12.2c6.5 0 11.7 1.7 15.9 4.3a7 7 0 0 0 3.6 1.2c1 0 2-.3 3-.9 4.7-3 10-4.6 16.3-4.6 6.4 0 11.6 1.8 16 4.7a5.5 5.5 0 0 0 6.1 0 31.6 31.6 0 0 1 24.7-3.6c1.6.4 2.3.3 3.6 0a32 32 0 0 1 23.8 3.1c1.6 1 2.7 1.4 3.8 1.3 1 0 2-.5 3-1.1a31.4 31.4 0 0 1 25-3 6 6 0 0 0 4.3-.1 31.3 31.3 0 0 1 25.4 3.5c1.5 1.1 2.7 1.6 3.8 1.6 1.2-.1 2.3-.7 3.6-1.6a29 29 0 0 1 16.7-4.8c6 0 11 1.5 15.2 3.9 1.5.9 3.4 1 5 .2a57.5 57.5 0 0 1 37.5-3.1Z" clip-rule="evenodd"/><path stroke="#FFD000" stroke-linecap="round" stroke-linejoin="round" stroke-miterlimit="2" stroke-width="8.3" d="M273.5 20.5h.3-.3Zm1.3 0h-.3l2.1-.6-1.8.6Z" clip-rule="evenodd"/><g filter="url(#e)"><path stroke="url(#f)" stroke-linejoin="round" stroke-miterlimit="2" stroke-width="2.8" d="M273.5 20.5h.3-.3Zm1.3 0h-.3l2.1-.6-1.8.6Z" clip-rule="evenodd"/></g><path fill="#912215" fill-rule="evenodd" d="M137.1 99.4a6.9 6.9 0 0 1-4 8.8l-52 18.9a7 7 0 0 1-8.8-4.1L42 40a6.9 6.9 0 0 1 4.1-8.8L98 12.3a7 7 0 0 1 8.8 4.1l30.2 83ZM412.7 23c9.7 2.3 18.2 6.4 22.3 15.4a23.3 23.3 0 0 1 .4 18.7 11 11 0 0 0 .6 9.6 34.8 34.8 0 0 1-9.4 43.8c-3.8 3-8.3 5.3-13.7 6.9a53.9 53.9 0 0 1-15.4 2 69.8 69.8 0 0 1-21.7-3.4 11 11 0 0 0-8.5.5c-3 1.5-6.4 2.3-10.2 2.3-5.8 0-10.2-1.6-13.5-3.7-4.8-3.1-9.8-3.1-13.5-.5a23.5 23.5 0 0 1-14.1 4.2c-6 0-10.6-1.6-14.3-4.4a11.1 11.1 0 0 0-13.1 0 24.1 24.1 0 0 1-14.6 4.4c-7.8 0-13.5-2.8-17.7-7.2-1-1-2-2.4-2.6-3.1-2-2.3-4-4.5-9-4.5-4.8 0-7.3 2.8-8.7 4.3-1 1.2-3.3 4-5 5.4a24 24 0 0 1-15.4 5c-5.6 0-10-1.4-13.7-3.8a11 11 0 0 0-12.2 0c-3.5 2.4-8 3.9-13.6 3.9a24.2 24.2 0 0 1-23.7-16.7l-17.3-48.6a22.9 22.9 0 0 1 22.6-31.3 24 24 0 0 1 12.9 3.5c1.7 1 4 2 6.5 2a11 11 0 0 0 6-1.8c3.9-2.5 8.2-3.7 13.3-3.7 5.1 0 9.4 1.4 13 3.7a11 11 0 0 0 12.2 0 26.1 26.1 0 0 1 20.2-2.9c2.9 1 4.1.7 6.5.1a26.3 26.3 0 0 1 19.5 2.6c2.7 1.5 4.8 2.1 6.7 2 2 0 3.8-.7 5.8-2a26 26 0 0 1 20.5-2.5c3.1 1 4.4 1 7.5 0 2.2-.6 4.6-1 7.3-1 4.7 0 9 1 13.3 3.9 2.9 2 5.2 2.6 7.3 2.5 2.1-.1 4.2-1 6.4-2.5 3.5-2.4 8-3.9 13.6-3.9 5 0 9 1.2 12.4 3.1 3 1.9 6.9 2 10.2.5a52 52 0 0 1 34-2.8Z" clip-rule="evenodd"/><g filter="url(#g)"><path fill="#6E0015" fill-rule="evenodd" d="M342.6 108.5a8.3 8.3 0 0 0-13.4.8A14.5 14.5 0 0 1 316 116a15.1 15.1 0 0 1-13.6-7.4 8.3 8.3 0 0 0-14.5 0c-.6 1-1.3 2-2.1 2.8A15.6 15.6 0 0 1 274 116c-5.2 0-9-1.7-11.8-4.6a16.2 16.2 0 0 1-4.3-11.7v-15a8 8 0 0 0-1.5-4.8l-1.4-2.1a8.3 8.3 0 0 0-14.6 1.9l-9 24.7a18 18 0 0 1-5.6 8.4 16 16 0 0 1-10.2 3.2 16 16 0 0 1-10.2-3.2c-1-.8-2-1.8-3-3a8.3 8.3 0 0 0-13.3 0 15.9 15.9 0 0 1-13 6.3c-4.3 0-7.6-1.3-10.2-3.3a18 18 0 0 1-5.8-8.3L143 56.3c-2-5.5-1.2-10.2 1.5-14 2.6-3.8 6.8-6.3 13.2-6.3 4.5 0 7.9 1.4 10.4 3.5.8.7 1.7 1.6 2.4 2.7A8.3 8.3 0 0 0 184 42a13 13 0 0 1 3.5-3.5 15 15 0 0 1 9-2.6 14.7 14.7 0 0 1 12.3 6.2 8.3 8.3 0 0 0 13.5 0c.7-1 1.5-1.9 2.3-2.6 2.5-2.2 5.9-3.6 10.4-3.6 2.5 0 4.8.5 6.7 1.3 2.1 1 4.6 1 6.7 0a18 18 0 0 1 6.9-1.3 16.3 16.3 0 0 1 12.8 6 8.3 8.3 0 0 0 12.4 0 16.4 16.4 0 0 1 12.9-6c3 0 5.4.6 7.5 1.7a8.3 8.3 0 0 0 7.6 0 15 15 0 0 1 7.2-1.7c5 0 9.4 2 14 7.6a8.3 8.3 0 0 0 13.4-.8 14.7 14.7 0 0 1 13.2-6.8 15 15 0 0 1 11.1 4.3 8.3 8.3 0 0 0 10.5 1 34 34 0 0 1 9-4.1 49.2 49.2 0 0 1 24-.5 33 33 0 0 1 10.3 4h.1c3 1.6 5 3.9 6.2 6.7a15.2 15.2 0 0 1-1.4 15.2c-2.2 3-2 7.3.4 10.2a26.7 26.7 0 0 1-4.9 36.7c-3 2.3-6.7 4.2-11 5.5a45.7 45.7 0 0 1-13 1.7 61.6 61.6 0 0 1-23-4.6 8.3 8.3 0 0 0-8.6 1 13.7 13.7 0 0 1-8.8 3c-3.8 0-6.8-1-9-2.5a24 24 0 0 1-5.5-5.1Z" clip-rule="evenodd"/></g><path fill="#000" fill-rule="evenodd" d="M342.6 105.7a8.3 8.3 0 0 0-13.4.8 14.5 14.5 0 0 1-13.2 6.8 15.1 15.1 0 0 1-13.6-7.5 8.3 8.3 0 0 0-14.5 0c-.6 1-1.3 2-2.1 2.9a15.6 15.6 0 0 1-11.8 4.6 16 16 0 0 1-11.8-4.6 16.2 16.2 0 0 1-4.3-11.8v-15c0-1.7-.5-3.4-1.5-4.7L255 75a8.3 8.3 0 0 0-14.6 2l-9 24.7a18 18 0 0 1-5.6 8.3 16 16 0 0 1-10.2 3.3 16 16 0 0 1-10.2-3.3c-1-.8-2-1.8-3-3a8.3 8.3 0 0 0-13.3 0c-.8 1.2-1.8 2.1-2.8 3a16 16 0 0 1-10.2 3.3c-4.3 0-7.6-1.2-10.2-3.2a18 18 0 0 1-5.8-8.4L143 53.5c-2-5.5-1.2-10.1 1.5-14 2.6-3.7 6.8-6.2 13.2-6.2 4.5 0 7.9 1.3 10.4 3.4a21 21 0 0 1 2.4 2.7 8.3 8.3 0 0 0 13.5 0c1-1.5 2.2-2.7 3.5-3.6a15 15 0 0 1 9-2.5 14.7 14.7 0 0 1 12.3 6.2 8.3 8.3 0 0 0 13.5 0c.7-1 1.5-2 2.3-2.7 2.5-2.1 5.9-3.5 10.4-3.5 2.5 0 4.8.4 6.7 1.3 2.1 1 4.6 1 6.7 0 2-.9 4.2-1.3 6.9-1.3a16.3 16.3 0 0 1 12.8 6 8.3 8.3 0 0 0 12.4-.1 16.4 16.4 0 0 1 12.9-6c3 0 5.4.7 7.5 1.7a8.3 8.3 0 0 0 7.6 0c2-1 4.5-1.6 7.2-1.6 5 0 9.4 1.9 14 7.5A8.3 8.3 0 0 0 343 40a14.6 14.6 0 0 1 13.2-6.7 15 15 0 0 1 11.1 4.2 8.3 8.3 0 0 0 10.5 1 34 34 0 0 1 9-4c3.8-1.3 8.1-2 12.9-2a46.9 46.9 0 0 1 21.4 5.4h.1c3 1.7 5 4 6.2 6.7a15.2 15.2 0 0 1-1.4 15.2c-2.2 3.1-2 7.3.4 10.2 3.4 4.1 5.3 9.3 5.3 15.6a26.7 26.7 0 0 1-10.2 21.1c-3 2.4-6.7 4.2-11 5.5a45.7 45.7 0 0 1-13 1.8 61.6 61.6 0 0 1-23-4.7 8.3 8.3 0 0 0-8.6 1.1 13.7 13.7 0 0 1-8.8 2.9c-3.8 0-6.8-1-9-2.4a24 24 0 0 1-5.5-5.2Z" clip-rule="evenodd"/><path fill="#001451" fill-rule="evenodd" d="M342.6 103a8.3 8.3 0 0 0-13.4.8 14.5 14.5 0 0 1-13.2 6.7 15.1 15.1 0 0 1-13.6-7.5 8.3 8.3 0 0 0-14.5 0c-.6 1.1-1.3 2-2.1 3a15.6 15.6 0 0 1-11.8 4.5 16 16 0 0 1-11.8-4.6A16.2 16.2 0 0 1 258 94V79a8 8 0 0 0-1.5-4.7l-1.4-2.1a8.3 8.3 0 0 0-14.6 1.9l-9 24.7a18 18 0 0 1-5.6 8.3 16 16 0 0 1-10.2 3.3 16 16 0 0 1-10.2-3.2c-1-.8-2-1.8-3-3a8.3 8.3 0 0 0-13.3 0c-.8 1.1-1.8 2-2.8 2.9a16 16 0 0 1-10.2 3.3c-4.3 0-7.6-1.2-10.2-3.2a18 18 0 0 1-5.8-8.3L143 50.8c-2-5.6-1.2-10.2 1.5-14 2.6-3.8 6.8-6.3 13.2-6.3 4.5 0 7.9 1.4 10.4 3.5.8.7 1.7 1.6 2.4 2.7a8.3 8.3 0 0 0 13.5-.1 13 13 0 0 1 3.5-3.5 15 15 0 0 1 9-2.6 14.7 14.7 0 0 1 12.3 6.2 8.3 8.3 0 0 0 13.5 0c.7-1 1.5-1.9 2.3-2.6 2.5-2.2 5.9-3.6 10.4-3.6 2.5 0 4.8.5 6.7 1.3 2.1 1 4.6 1 6.7 0a18 18 0 0 1 6.9-1.3 16.3 16.3 0 0 1 12.8 6 8.3 8.3 0 0 0 12.4 0 16.4 16.4 0 0 1 12.9-6c3 0 5.4.6 7.5 1.7a8.3 8.3 0 0 0 7.6 0 14 14 0 0 1 7.2-1.7c5 0 9.4 2 14 7.6a8.3 8.3 0 0 0 13.4-.8 14.6 14.6 0 0 1 13.2-6.8 15 15 0 0 1 11.1 4.3 8.3 8.3 0 0 0 10.5 1 34 34 0 0 1 9-4.2 49.2 49.2 0 0 1 24-.5c4 1 7.4 2.3 10.3 4h.1c3 1.7 5 4 6.2 6.7a15.2 15.2 0 0 1-1.4 15.3c-2.2 3-2 7.3.4 10.2 3.4 4 5.3 9.2 5.3 15.5a26.7 26.7 0 0 1-10.2 21.2c-3 2.3-6.7 4.2-11 5.4a45.7 45.7 0 0 1-13 1.8 61.8 61.8 0 0 1-23-4.6 8.3 8.3 0 0 0-8.6 1 13.7 13.7 0 0 1-8.8 3c-3.8 0-6.8-1-9-2.5a24 24 0 0 1-5.5-5.1Z" clip-rule="evenodd"/><path fill="#001451" fill-rule="evenodd" d="M342.6 103a8.3 8.3 0 0 0-13.4.8 14.5 14.5 0 0 1-13.2 6.7 15.1 15.1 0 0 1-13.6-7.5 8.3 8.3 0 0 0-14.5 0c-.6 1.1-1.3 2-2.1 3a15.6 15.6 0 0 1-11.8 4.5 16 16 0 0 1-11.8-4.6A16.2 16.2 0 0 1 258 94V79a8 8 0 0 0-1.5-4.7l-1.4-2.1a8.3 8.3 0 0 0-14.6 1.9l-9 24.7a18 18 0 0 1-5.6 8.3 16 16 0 0 1-10.2 3.3 16 16 0 0 1-10.2-3.2c-1-.8-2-1.8-3-3a8.3 8.3 0 0 0-13.3 0c-.8 1.1-1.8 2-2.8 2.9a16 16 0 0 1-10.2 3.3c-4.3 0-7.6-1.2-10.2-3.2a18 18 0 0 1-5.8-8.3L143 50.8c-2-5.6-1.2-10.2 1.5-14 2.6-3.8 6.8-6.3 13.2-6.3 4.5 0 7.9 1.4 10.4 3.5.8.7 1.7 1.6 2.4 2.7a8.3 8.3 0 0 0 13.5-.1 13 13 0 0 1 3.5-3.5 15 15 0 0 1 9-2.6 14.7 14.7 0 0 1 12.3 6.2 8.3 8.3 0 0 0 13.5 0c.7-1 1.5-1.9 2.3-2.6 2.5-2.2 5.9-3.6 10.4-3.6 2.5 0 4.8.5 6.7 1.3 2.1 1 4.6 1 6.7 0a18 18 0 0 1 6.9-1.3 16.3 16.3 0 0 1 12.8 6 8.3 8.3 0 0 0 12.4 0 16.4 16.4 0 0 1 12.9-6c3 0 5.4.6 7.5 1.7a8.3 8.3 0 0 0 7.6 0 14 14 0 0 1 7.2-1.7c5 0 9.4 2 14 7.6a8.3 8.3 0 0 0 13.4-.8 14.6 14.6 0 0 1 13.2-6.8 15 15 0 0 1 11.1 4.3 8.3 8.3 0 0 0 10.5 1 34 34 0 0 1 9-4.2 49.2 49.2 0 0 1 24-.5c4 1 7.4 2.3 10.3 4h.1c3 1.7 5 4 6.2 6.7a15.2 15.2 0 0 1-1.4 15.3c-2.2 3-2 7.3.4 10.2 3.4 4 5.3 9.2 5.3 15.5a26.7 26.7 0 0 1-10.2 21.2c-3 2.3-6.7 4.2-11 5.4a45.7 45.7 0 0 1-13 1.8 61.8 61.8 0 0 1-23-4.6 8.3 8.3 0 0 0-8.6 1 13.7 13.7 0 0 1-8.8 3c-3.8 0-6.8-1-9-2.5a24 24 0 0 1-5.5-5.1Z" clip-rule="evenodd"/><g filter="url(#h)"><path fill="#6E0015" fill-rule="evenodd" d="M342.6 103a8.3 8.3 0 0 0-13.4.8 14.5 14.5 0 0 1-13.2 6.7 15.1 15.1 0 0 1-13.6-7.5 8.3 8.3 0 0 0-14.5 0c-.6 1.1-1.3 2-2.1 3a15.6 15.6 0 0 1-11.8 4.5c-5.2 0-9-1.7-11.8-4.6A16.2 16.2 0 0 1 258 94V79a8 8 0 0 0-1.5-4.7l-1.4-2.1a8.3 8.3 0 0 0-14.6 1.9l-9 24.7a18 18 0 0 1-5.6 8.3 16 16 0 0 1-10.2 3.3 16 16 0 0 1-10.2-3.2c-1-.8-2-1.8-3-3a8.3 8.3 0 0 0-13.3 0c-.8 1.1-1.8 2-2.8 2.9a16 16 0 0 1-10.2 3.3c-4.3 0-7.6-1.2-10.2-3.2a18 18 0 0 1-5.8-8.3L143 50.8c-2-5.6-1.2-10.2 1.5-14 2.6-3.8 6.8-6.3 13.2-6.3 4.5 0 7.9 1.4 10.4 3.5.8.7 1.7 1.6 2.4 2.7a8.3 8.3 0 0 0 13.5-.1 13 13 0 0 1 3.5-3.5 15 15 0 0 1 9-2.6 14.7 14.7 0 0 1 12.3 6.2 8.3 8.3 0 0 0 13.5 0c.7-1 1.5-1.9 2.3-2.6 2.5-2.2 5.9-3.6 10.4-3.6 2.5 0 4.8.5 6.7 1.3 2.1 1 4.6 1 6.7 0a18 18 0 0 1 6.9-1.3 16.3 16.3 0 0 1 12.8 6 8.3 8.3 0 0 0 12.4 0 16.4 16.4 0 0 1 12.9-6c3 0 5.4.6 7.5 1.7a8.3 8.3 0 0 0 7.6 0 14 14 0 0 1 7.2-1.7c5 0 9.4 2 14 7.6a8.3 8.3 0 0 0 13.4-.8 14.7 14.7 0 0 1 13.2-6.8 15 15 0 0 1 11.1 4.3 8.3 8.3 0 0 0 10.5 1 34 34 0 0 1 9-4.2 49.2 49.2 0 0 1 24-.5c4 1 7.4 2.3 10.3 4h.1c3 1.7 5 4 6.2 6.7a15.2 15.2 0 0 1-1.4 15.3c-2.2 3-2 7.3.4 10.2 3.4 4 5.3 9.2 5.3 15.5a26.7 26.7 0 0 1-10.2 21.2c-3 2.3-6.7 4.2-11 5.4a45.7 45.7 0 0 1-13 1.8 61.6 61.6 0 0 1-23-4.6 8.3 8.3 0 0 0-8.6 1 13.7 13.7 0 0 1-8.8 3c-3.8 0-6.8-1-9-2.5a24 24 0 0 1-5.5-5.1Z" clip-rule="evenodd"/></g><path fill="#000" fill-rule="evenodd" d="M342.6 103a8.3 8.3 0 0 0-13.4.8 14.5 14.5 0 0 1-13.2 6.7 15.1 15.1 0 0 1-13.6-7.5 8.3 8.3 0 0 0-14.5 0c-.6 1.1-1.3 2-2.1 3a15.6 15.6 0 0 1-11.8 4.5 16 16 0 0 1-11.8-4.6A16.2 16.2 0 0 1 258 94V79a8 8 0 0 0-1.5-4.7l-1.4-2.1a8.3 8.3 0 0 0-14.6 1.9l-9 24.7a18 18 0 0 1-5.6 8.3 16 16 0 0 1-10.2 3.3 16 16 0 0 1-10.2-3.2c-1-.8-2-1.8-3-3a8.3 8.3 0 0 0-13.3 0c-.8 1.1-1.8 2-2.8 2.9a16 16 0 0 1-10.2 3.3c-4.3 0-7.6-1.2-10.2-3.2a18 18 0 0 1-5.8-8.3L143 50.8c-2-5.6-1.2-10.2 1.5-14 2.6-3.8 6.8-6.3 13.2-6.3 4.5 0 7.9 1.4 10.4 3.5.8.7 1.7 1.6 2.4 2.7a8.3 8.3 0 0 0 13.5-.1 13 13 0 0 1 3.5-3.5 15 15 0 0 1 9-2.6 14.7 14.7 0 0 1 12.3 6.2 8.3 8.3 0 0 0 13.5 0c.7-1 1.5-1.9 2.3-2.6 2.5-2.2 5.9-3.6 10.4-3.6 2.5 0 4.8.5 6.7 1.3 2.1 1 4.6 1 6.7 0a18 18 0 0 1 6.9-1.3 16.3 16.3 0 0 1 12.8 6 8.3 8.3 0 0 0 12.4 0 16.4 16.4 0 0 1 12.9-6c3 0 5.4.6 7.5 1.7a8.3 8.3 0 0 0 7.6 0 14 14 0 0 1 7.2-1.7c5 0 9.4 2 14 7.6a8.3 8.3 0 0 0 13.4-.8 14.6 14.6 0 0 1 13.2-6.8 15 15 0 0 1 11.1 4.3 8.3 8.3 0 0 0 10.5 1 34 34 0 0 1 9-4.2 49.2 49.2 0 0 1 24-.5c4 1 7.4 2.3 10.3 4h.1c3 1.7 5 4 6.2 6.7a15.2 15.2 0 0 1-1.4 15.3c-2.2 3-2 7.3.4 10.2 3.4 4 5.3 9.2 5.3 15.5a26.7 26.7 0 0 1-10.2 21.2c-3 2.3-6.7 4.2-11 5.4a45.7 45.7 0 0 1-13 1.8 61.8 61.8 0 0 1-23-4.6 8.3 8.3 0 0 0-8.6 1 13.7 13.7 0 0 1-8.8 3c-3.8 0-6.8-1-9-2.5a24 24 0 0 1-5.5-5.1Z" clip-rule="evenodd"/><path fill="#001451" fill-rule="evenodd" d="M342.6 103a8.3 8.3 0 0 0-13.4.8 14.5 14.5 0 0 1-13.2 6.7 15.1 15.1 0 0 1-13.6-7.5 8.3 8.3 0 0 0-14.5 0c-.6 1.1-1.3 2-2.1 3a15.6 15.6 0 0 1-11.8 4.5 16 16 0 0 1-11.8-4.6A16.2 16.2 0 0 1 258 94V79a8 8 0 0 0-1.5-4.7l-1.4-2.1a8.3 8.3 0 0 0-14.6 1.9l-9 24.7a18 18 0 0 1-5.6 8.3 16 16 0 0 1-10.2 3.3 16 16 0 0 1-10.2-3.2c-1-.8-2-1.8-3-3a8.3 8.3 0 0 0-13.3 0c-.8 1.1-1.8 2-2.8 2.9a16 16 0 0 1-10.2 3.3c-4.3 0-7.6-1.2-10.2-3.2a18 18 0 0 1-5.8-8.3L143 50.8c-2-5.6-1.2-10.2 1.5-14 2.6-3.8 6.8-6.3 13.2-6.3 4.5 0 7.9 1.4 10.4 3.5.8.7 1.7 1.6 2.4 2.7a8.3 8.3 0 0 0 13.5-.1 13 13 0 0 1 3.5-3.5 15 15 0 0 1 9-2.6 14.7 14.7 0 0 1 12.3 6.2 8.3 8.3 0 0 0 13.5 0c.7-1 1.5-1.9 2.3-2.6 2.5-2.2 5.9-3.6 10.4-3.6 2.5 0 4.8.5 6.7 1.3 2.1 1 4.6 1 6.7 0a18 18 0 0 1 6.9-1.3 16.3 16.3 0 0 1 12.8 6 8.3 8.3 0 0 0 12.4 0 16.4 16.4 0 0 1 12.9-6c3 0 5.4.6 7.5 1.7a8.3 8.3 0 0 0 7.6 0 14 14 0 0 1 7.2-1.7c5 0 9.4 2 14 7.6a8.3 8.3 0 0 0 13.4-.8 14.6 14.6 0 0 1 13.2-6.8 15 15 0 0 1 11.1 4.3 8.3 8.3 0 0 0 10.5 1 34 34 0 0 1 9-4.2 49.2 49.2 0 0 1 24-.5c4 1 7.4 2.3 10.3 4h.1c3 1.7 5 4 6.2 6.7a15.2 15.2 0 0 1-1.4 15.3c-2.2 3-2 7.3.4 10.2 3.4 4 5.3 9.2 5.3 15.5a26.7 26.7 0 0 1-10.2 21.2c-3 2.3-6.7 4.2-11 5.4a45.7 45.7 0 0 1-13 1.8 61.8 61.8 0 0 1-23-4.6 8.3 8.3 0 0 0-8.6 1 13.7 13.7 0 0 1-8.8 3c-3.8 0-6.8-1-9-2.5a24 24 0 0 1-5.5-5.1Z" clip-rule="evenodd"/><path stroke="#009DE7" stroke-linecap="round" stroke-linejoin="round" stroke-miterlimit="2" stroke-width="5.5" d="M198.2 38.8c1.8 0 3.3.5 4.4 1.5 1.1 1 2 2.6 2.8 4.7l11.4 35 11.6-35c.7-2 1.6-3.6 2.7-4.6 1.2-1 2.8-1.5 4.8-1.5 2.6 0 4.5.9 5.6 2.7 1.2 1.8 1.3 4 .4 6.5l-17 48.1a10 10 0 0 1-2.9 4.6 7.6 7.6 0 0 1-5 1.5 8 8 0 0 1-5-1.5 10 10 0 0 1-3-4.7l-11.2-32.5L186.2 96a9.3 9.3 0 0 1-3 4.6 7.6 7.6 0 0 1-4.9 1.5 8 8 0 0 1-5-1.5 9.1 9.1 0 0 1-3-4.7l-16.8-48c-1-2.6-.8-4.7.4-6.5 1.3-1.8 3.4-2.7 6.3-2.7 2.1 0 3.8.5 5 1.5 1 1 2 2.5 2.7 4.7l11 34.1 12-34.2m90.9 37.6v11.7c0 5.4-2.5 8.1-7.6 8.1-2.4 0-4.3-.7-5.6-2a8.5 8.5 0 0 1-2-6V73.8L250 49.4a7 7 0 0 1 .7-8.8 7 7 0 0 1 5.1-1.8 8 8 0 0 1 4.3 1.2c1.2.8 2.4 2 3.6 3.8L274.4 60l10.9-16.3a12 12 0 0 1 3.6-3.8 8 8 0 0 1 4.2-1.1c2.1 0 3.8.5 5 1.6 1 1.1 1.7 2.5 1.8 4.1a9 9 0 0 1-1.6 5L281.8 74m40.6-30.8 25.3 32.6V46.2c0-2.4.6-4.2 1.8-5.5 1.2-1.3 3-2 5.3-2s4 .7 5.2 2c1.2 1.3 1.8 3 1.8 5.5v49c0 2.1-.5 3.8-1.6 5.1a5.6 5.6 0 0 1-4.5 2 8 8 0 0 1-4.5-1.1c-1-.7-2.2-1.9-3.4-3.5l-25.3-32.5v29.6c0 2.4-.6 4.3-1.8 5.5-1.2 1.3-3 2-5.3 2s-4-.7-5.3-2c-1.2-1.2-1.8-3-1.8-5.5V46.5c0-2.5.6-4.4 1.8-5.7 1.2-1.3 2.9-2 4.9-2m88.4 13a31 31 0 0 0-6.2-.6c-2.1 0-4 .2-5.5.8a7.6 7.6 0 0 0-3.5 2.3c-.8 1-1.1 2.1-1.1 3.4 0 1.4.5 2.5 1.5 3.4 1 1 3 1.7 5.7 2.3l9.8 2.2c5.6 1.2 9.7 3.3 12.4 6.1a15 15 0 0 1 4.1 11.1 18.2 18.2 0 0 1-6.9 14.6 23.6 23.6 0 0 1-8 4.1 36 36 0 0 1-10.4 1.4 50.8 50.8 0 0 1-20.3-4.4 6.5 6.5 0 0 1-3.1-3 7.6 7.6 0 0 1 .8-7.6 5.5 5.5 0 0 1 3-2.2c1.3-.4 2.7-.1 4.3.6a36.2 36.2 0 0 0 15.3 3.5c3.8 0 6.5-.5 8-1.6 1.6-1.1 2.4-2.5 2.4-4.1 0-1.5-.5-2.6-1.6-3.5a15 15 0 0 0-5.9-2.2l-9.9-2.2a22.7 22.7 0 0 1-12.2-6.2 17 17 0 0 1-4-11.5 18.8 18.8 0 0 1 7-14.8c2.3-1.8 5-3.2 8-4.1a39.1 39.1 0 0 1 19.4-.4c3 .7 5.7 1.8 8 3.1 1.2.8 2.1 1.7 2.7 3 .5 1.2.7 2.4.6 3.7a6.7 6.7 0 0 1-1.3 3.4c-.8 1-1.8 1.6-3 2"/><g filter="url(#i)"><path fill="url(#j)" fill-rule="evenodd" stroke="#00D0FF" stroke-linejoin="round" stroke-miterlimit="2" stroke-width="8.3" d="M408.3 41.9c6.5 1.5 8.5 3.3 9 4.5.4.7.5 1.5.5 2.3-.1.7-.3 1.3-.7 1.9-5.3 7.2-4.9 17 .8 23.8 1.9 2.2 2.7 5 2.7 8.4a15.7 15.7 0 0 1-5.9 12.5c-2 1.5-4.5 2.7-7.3 3.6-2.9.8-6.2 1.3-9.9 1.3a50.3 50.3 0 0 1-18.4-3.7c-6.6-3-14.4-2-20 2.5-.6.4-1.2.5-2 .5-1.3 0-2.3-.2-3-.6-1-.6-1.9-1.6-2.9-2.8a19.2 19.2 0 0 0-16.1-7.2c-6.3 0-12 3.7-15.3 9l-.4.5c-.8.8-2 1-3.4 1-1.5 0-2.6-.2-3.4-1l-.5-.7a18 18 0 0 0-16.9-10c-7 0-13.5 3.8-16.9 10l-.5.6c-.9.9-2.2 1.2-3.8 1.2-1.7 0-3-.4-3.8-1.3-1-1-1.3-2.3-1.3-4V78.6l-.7-5-.1-.3c-.6-1.9-1.5-3.7-2.6-5.3l-1.4-2a19.3 19.3 0 0 0-34.1 4.4l-9 24.7a7.3 7.3 0 0 1-2 3.4c-.9.6-2 .9-3.4.9s-2.6-.3-3.4-1l-.9-.8a19.3 19.3 0 0 0-31 0 5 5 0 0 1-1 .9c-.7.6-1.8.9-3.2.9-1.4 0-2.6-.3-3.5-1-.9-.6-1.6-1.8-2.1-3.3L153.3 47c-.6-1.6-.6-3 .2-4 .8-1.2 2.2-1.5 4.1-1.5 1.4 0 2.5.2 3.2.8l.7.8c3.7 5 9.5 8 15.8 8 4.8 0 8.6-1.3 16.4-9.1.7-.7 1.7-.5 2.7-.5 1 0 2 .2 2.7.8l.6.7a19.3 19.3 0 0 0 31.4 0l.7-.7c.7-.6 1.8-.8 3-.8.9 0 1.6 0 2.3.3 5 2.2 10.7 2.2 15.7 0 .7-.3 1.5-.3 2.4-.3 1 0 2 .2 2.9.7l1.6 1.5a19.3 19.3 0 0 0 29 0c.6-.7 1-1.2 1.6-1.5.9-.5 1.8-.7 3-.7 1 0 1.8 0 2.4.4a19.3 19.3 0 0 0 17.9-.1c.5-.3 1.2-.3 2-.3 2 0 3.5 1.1 5.4 3.4a19.3 19.3 0 0 0 31.3-1.8l.5-.6c.7-.8 1.9-1 3.4-1 1.4 0 2.5.2 3.3 1a20 20 0 0 0 11.8 5.6c4.3 0 9.6-1.2 12.6-3.2 1.8-1.2 3.8-2.1 6.1-2.8a38 38 0 0 1 18.3-.3Z" clip-rule="evenodd" opacity=".6"/></g><path stroke="#49FAFA" stroke-linecap="round" stroke-linejoin="round" stroke-miterlimit="2" stroke-width="5.5" d="M196.4 38.8c1.8 0 3.3.5 4.5 1.5 1.1 1 2 2.6 2.8 4.7l11.7 35 11.8-35c.7-2 1.6-3.6 2.8-4.6 1.2-1 2.8-1.5 4.9-1.5 2.6 0 4.5.9 5.7 2.7 1.2 1.8 1.3 4 .4 6.5l-17.3 48.1a10 10 0 0 1-3 4.6 8 8 0 0 1-5.1 1.5 8 8 0 0 1-5.1-1.5 10 10 0 0 1-3-4.7l-11.6-32.5L184.2 96c-.8 2.1-1.8 3.6-3 4.6-1.3 1-3 1.5-5.1 1.5-2.1 0-3.8-.5-5.1-1.5a10 10 0 0 1-3.2-4.7l-17-48c-1-2.6-.8-4.7.4-6.5 1.2-1.8 3.4-2.7 6.4-2.7 2.2 0 3.8.5 5 1.5 1.2 1 2.1 2.5 2.8 4.7L176.7 79 189 44.9m92.7 37.5v11.7c0 5.4-2.6 8.1-7.7 8.1-2.5 0-4.5-.7-5.8-2a8.5 8.5 0 0 1-2-6V73.8l-17-24.5a6.8 6.8 0 0 1 .8-8.8c1.2-1.2 3-1.8 5.2-1.8a8 8 0 0 1 4.3 1.2c1.3.8 2.5 2 3.7 3.8l11 16.2 11-16.3c1.2-1.7 2.4-3 3.7-3.8a8.3 8.3 0 0 1 4.4-1.1 7 7 0 0 1 5 1.6 5.8 5.8 0 0 1 1.8 4.1c.1 1.7-.4 3.3-1.5 5L281.7 74m41.4-30.8L349 75.8V46.2c0-2.4.6-4.2 1.9-5.5 1.2-1.3 3-2 5.4-2a7 7 0 0 1 5.3 2c1.3 1.3 1.9 3 1.9 5.5v49c0 2.1-.6 3.8-1.7 5.1a5.8 5.8 0 0 1-4.6 2 8 8 0 0 1-4.5-1.1c-1.1-.7-2.3-1.9-3.6-3.5l-25.8-32.5v29.6c0 2.4-.6 4.3-1.8 5.5-1.3 1.3-3 2-5.4 2-2.4 0-4.1-.7-5.4-2-1.2-1.2-1.8-3-1.8-5.5V46.5c0-2.5.6-4.4 1.8-5.7 1.3-1.3 2.9-2 5-2m90.1 13c-2.2-.4-4.2-.6-6.3-.6-2.2 0-4 .2-5.6.8a7.7 7.7 0 0 0-3.6 2.3c-.8 1-1.2 2.1-1.2 3.4 0 1.4.6 2.5 1.6 3.4 1 1 3 1.7 5.8 2.3l10 2.2c5.7 1.2 10 3.3 12.7 6.1a15 15 0 0 1 4.2 11.1 17.6 17.6 0 0 1-7 14.6c-2.3 1.8-5 3.2-8.2 4.1-3.2 1-6.7 1.4-10.7 1.4a53 53 0 0 1-20.7-4.4 6.6 6.6 0 0 1-3.8-7c.2-1.4.6-2.6 1.4-3.6a6 6 0 0 1 3.2-2.2 6 6 0 0 1 4.3.6 37.7 37.7 0 0 0 15.6 3.5c4 0 6.7-.5 8.3-1.6 1.6-1.1 2.4-2.5 2.4-4.1 0-1.5-.6-2.6-1.7-3.5-1.1-.8-3.1-1.6-6-2.2l-10-2.2A23.3 23.3 0 0 1 378 70a16 16 0 0 1-4.1-11.5 18.5 18.5 0 0 1 7.1-14.8c2.3-1.8 5-3.2 8.2-4.1a40.7 40.7 0 0 1 19.8-.4 31 31 0 0 1 8.1 3.1c1.3.8 2.2 1.7 2.8 3a7 7 0 0 1 .6 3.7 6.6 6.6 0 0 1-1.3 3.4 6 6 0 0 1-3.1 2"/><path stroke="#fff" stroke-linecap="round" stroke-linejoin="round" stroke-miterlimit="2" stroke-width="2.8" d="M196.4 38.8c1.8 0 3.3.5 4.5 1.5 1.1 1 2 2.6 2.8 4.7l11.7 35 11.8-35c.7-2 1.6-3.6 2.8-4.6 1.2-1 2.8-1.5 4.9-1.5 2.6 0 4.5.9 5.7 2.7 1.2 1.8 1.3 4 .4 6.5l-17.3 48.1a10 10 0 0 1-3 4.6 8 8 0 0 1-5.1 1.5 8 8 0 0 1-5.1-1.5 10 10 0 0 1-3-4.7l-11.6-32.5L184.2 96c-.8 2.1-1.8 3.6-3 4.6-1.3 1-3 1.5-5.1 1.5-2.1 0-3.8-.5-5.1-1.5a10 10 0 0 1-3.2-4.7l-17-48c-1-2.6-.8-4.7.4-6.5 1.2-1.8 3.4-2.7 6.4-2.7 2.2 0 3.8.5 5 1.5 1.2 1 2.1 2.5 2.8 4.7L176.7 79 189 44.9m92.7 37.5v11.7c0 5.4-2.6 8.1-7.7 8.1-2.5 0-4.5-.7-5.8-2a8.5 8.5 0 0 1-2-6V73.8l-17-24.5a6.8 6.8 0 0 1 .8-8.8c1.2-1.2 3-1.8 5.2-1.8a8 8 0 0 1 4.3 1.2c1.3.8 2.5 2 3.7 3.8l11 16.2 11-16.3c1.2-1.7 2.4-3 3.7-3.8a8.3 8.3 0 0 1 4.4-1.1 7 7 0 0 1 5 1.6 5.8 5.8 0 0 1 1.8 4.1c.1 1.7-.4 3.3-1.5 5L281.7 74m41.4-30.8L349 75.8V46.2c0-2.4.6-4.2 1.9-5.5 1.2-1.3 3-2 5.4-2a7 7 0 0 1 5.3 2c1.3 1.3 1.9 3 1.9 5.5v49c0 2.1-.6 3.8-1.7 5.1a5.8 5.8 0 0 1-4.6 2 8 8 0 0 1-4.5-1.1c-1.1-.7-2.3-1.9-3.6-3.5l-25.8-32.5v29.6c0 2.4-.6 4.3-1.8 5.5-1.3 1.3-3 2-5.4 2-2.4 0-4.1-.7-5.4-2-1.2-1.2-1.8-3-1.8-5.5V46.5c0-2.5.6-4.4 1.8-5.7 1.3-1.3 2.9-2 5-2m90.1 13c-2.2-.4-4.2-.6-6.3-.6-2.2 0-4 .2-5.6.8a7.7 7.7 0 0 0-3.6 2.3c-.8 1-1.2 2.1-1.2 3.4 0 1.4.6 2.5 1.6 3.4 1 1 3 1.7 5.8 2.3l10 2.2c5.7 1.2 10 3.3 12.7 6.1a15 15 0 0 1 4.2 11.1 17.6 17.6 0 0 1-7 14.6c-2.3 1.8-5 3.2-8.2 4.1-3.2 1-6.7 1.4-10.7 1.4a53 53 0 0 1-20.7-4.4 6.6 6.6 0 0 1-3.8-7c.2-1.4.6-2.6 1.4-3.6a6 6 0 0 1 3.2-2.2 6 6 0 0 1 4.3.6 37.7 37.7 0 0 0 15.6 3.5c4 0 6.7-.5 8.3-1.6 1.6-1.1 2.4-2.5 2.4-4.1 0-1.5-.6-2.6-1.7-3.5-1.1-.8-3.1-1.6-6-2.2l-10-2.2A23.3 23.3 0 0 1 378 70a16 16 0 0 1-4.1-11.5 18.5 18.5 0 0 1 7.1-14.8c2.3-1.8 5-3.2 8.2-4.1a40.7 40.7 0 0 1 19.8-.4 31 31 0 0 1 8.1 3.1c1.3.8 2.2 1.7 2.8 3a7 7 0 0 1 .6 3.7 6.6 6.6 0 0 1-1.3 3.4 6 6 0 0 1-3.1 2"/><g filter="url(#k)"><path fill="#6E0015" fill-rule="evenodd" d="M79.8 99.9c-9.7-5.1-20-13.1-23.9-23.5-3.9-10.7.7-21.8 11.4-25.7 4.3-1.6 9-1 12.9.3l.7.3.3-.7c2.2-3.6 5.4-6.9 9.7-8.5 10.7-3.9 21.4 1.7 25.3 12.3 3 8.5 1.8 18.5-1 27.4a98 98 0 0 1-10.8 22.2 6.9 6.9 0 0 1-6.7 3s-5.3-.6-17.9-7.1Zm57.3 5a6.9 6.9 0 1 1-13 4.7l-2.8-7.8a6.9 6.9 0 1 1 13-4.7l2.8 7.8Zm-95-59.4a6.9 6.9 0 0 1 13-4.7l2.8 7.8a6.9 6.9 0 0 1-13 4.7l-2.8-7.8ZM13.3 78.7a6.9 6.9 0 1 1 11.3-7.9l4.7 6.8A6.9 6.9 0 1 1 18 85.5l-4.7-6.8Z" clip-rule="evenodd"/></g><path fill="#000" fill-rule="evenodd" d="M79.8 97.1c-9.7-5-20-13-23.9-23.5-3.9-10.7.7-21.8 11.4-25.6a19.1 19.1 0 0 1 13.6.5l.4-.7c2-3.5 5.3-6.9 9.6-8.4 10.7-4 21.4 1.6 25.3 12.3 3 8.5 1.8 18.5-1 27.4a98 98 0 0 1-10.8 22.2 6.9 6.9 0 0 1-6.7 3s-5.3-.6-17.9-7.2Zm57.3 5a6.9 6.9 0 0 1-13 4.8l-2.8-7.8a6.9 6.9 0 1 1 13-4.7l2.8 7.7Zm-95-59.3A6.9 6.9 0 0 1 55 38l2.8 7.7a6.9 6.9 0 0 1-13 4.8L42 42.7ZM13.3 76a6.9 6.9 0 1 1 11.3-8l4.7 6.8a6.9 6.9 0 1 1-11.3 8L13.3 76Z" clip-rule="evenodd"/><path fill="#001451" fill-rule="evenodd" d="M79.8 94.3c-9.7-5-20.1-13-23.9-23.5-3.9-10.6.7-21.7 11.4-25.6a19.1 19.1 0 0 1 13.6.5l.3-.6c2.2-3.6 5.4-7 9.7-8.5 10.7-3.9 21.4 1.7 25.3 12.3 3 8.5 1.8 18.5-1 27.4a99.8 99.8 0 0 1-10.8 22.2 6.9 6.9 0 0 1-6.7 3s-5.3-.6-17.9-7.2Z" clip-rule="evenodd"/><g filter="url(#l)"><path fill="url(#m)" fill-rule="evenodd" stroke="#00D0FF" stroke-linejoin="round" stroke-miterlimit="2" stroke-width="8.3" d="M70.1 53c6.2-2.3 14.4 2.6 14.4 2.6s3-9 9.3-11.2c6.2-2.3 12.3 1.1 14.6 7.4a34.7 34.7 0 0 1-1.1 22c-2.4 7.4-6 14-8.1 17.4-.7 1.1-2 1.6-3.3 1.2-2.4-.8-6.6-2.4-12.2-5.4-8-4.2-16.9-10.4-20-19-2.3-6.2.2-12.8 6.4-15Z" clip-rule="evenodd" opacity=".6"/></g><path fill="#001451" fill-rule="evenodd" d="M137.1 99.4a6.9 6.9 0 0 1-13 4.7l-2.8-7.8a6.9 6.9 0 1 1 13-4.7l2.8 7.8ZM42 40a6.9 6.9 0 0 1 13-4.7l2.9 7.8a6.9 6.9 0 0 1-13 4.7L42.1 40ZM13.3 73.2a6.9 6.9 0 1 1 11.3-8l4.7 6.9A6.9 6.9 0 1 1 18 80l-4.7-6.8Z" clip-rule="evenodd"/><g filter="url(#n)"><path fill="url(#o)" fill-rule="evenodd" stroke="#00D0FF" stroke-linejoin="round" stroke-miterlimit="2" stroke-width="8.3" d="M134.5 100.3a4.1 4.1 0 1 1-7.7 2.9l-2.9-7.8a4.1 4.1 0 0 1 7.8-2.9l2.8 7.8ZM44.7 39.1a4.1 4.1 0 1 1 7.8-2.9l2.8 7.8a4.1 4.1 0 0 1-7.8 2.9L44.7 39ZM15.5 71.6a4.1 4.1 0 1 1 6.8-4.7l4.8 6.8a4.1 4.1 0 1 1-6.8 4.7l-4.8-6.8Z" clip-rule="evenodd"/></g><path stroke="#49FAFA" stroke-linecap="round" stroke-linejoin="round" stroke-miterlimit="2" stroke-width="5.5" d="m48.6 37.7 2.8 7.7M19 69.2l4.7 6.8M83 88.2C74.7 84 65.6 77.4 62.4 68.5c-2.5-7 .3-14.3 7.3-16.8 7-2.6 14.8 4 14.8 4s1.8-10 8.8-12.6c7-2.5 13.8 1.2 16.4 8.2 6.4 17.7-11 43.3-11 43.3"/><path stroke="#fff" stroke-linecap="round" stroke-linejoin="round" stroke-miterlimit="2" stroke-width="2.8" d="m48.6 37.7 2.8 7.7M19 69.2l4.7 6.8M83 88.2C74.7 84 65.6 77.4 62.4 68.5c-2.5-7 .3-14.3 7.3-16.8 7-2.6 14.8 4 14.8 4s1.8-10 8.8-12.6c7-2.5 13.8 1.2 16.4 8.2 6.4 17.7-11 43.3-11 43.3"/><path stroke="#49FAFA" stroke-linecap="round" stroke-linejoin="round" stroke-miterlimit="2" stroke-width="5.5" d="m130.6 101.7-2.8-7.7"/><path stroke="#fff" stroke-linecap="round" stroke-linejoin="round" stroke-miterlimit="2" stroke-width="2.8" d="m130.6 101.7-2.8-7.7"/><path stroke="#FFD000" stroke-linecap="round" stroke-linejoin="round" stroke-miterlimit="2" stroke-width="8.3" d="M117.3 24.7 113.4 14a13.8 13.8 0 0 0-17.7-8.3l-51.9 19a13.8 13.8 0 0 0-8.2 17.7l30.2 83a13.8 13.8 0 0 0 17.7 8.2l51.9-18.9a13.8 13.8 0 0 0 8.2-17.7l-13-35.6c-13-35.5 14.4-46 27-46a31 31 0 0 1 17.2 4.8 4 4 0 0 0 4.5 0 30 30 0 0 1 17-4.9c6.8 0 12.3 1.9 16.9 5 1.3.8 3.2.8 4.5 0a32.9 32.9 0 0 1 26.1-3.7c.8.2 1.6.2 2.3 0a33 33 0 0 1 25.6 3.3l1.8.6a3 3 0 0 1-1.8-.6c.8.5 1.5.6 1.9.6l.6.2.6-.2c.3 0 1 0 1.9-.6h-.1 0a32.6 32.6 0 0 1 26.6-3c.9.2 1.8.2 2.6 0 3-1 6.2-1.6 9.8-1.6 6.3 0 12 1.4 17.7 5.4 1.5 1 3.4 1 4.8 0a30.2 30.2 0 0 1 18-5.4c6.4 0 11.7 1.6 16 4a4 4 0 0 0 3.8.3 58.9 58.9 0 0 1 38.4-3.2 52 52 0 0 1 14.4 5.6h0a30.1 30.1 0 0 1 13 37.7c-.4 1.2-.3 2.5.3 3.6a39 39 0 0 1 4.9 19.5 41.6 41.6 0 0 1-16 33.1 47.5 47.5 0 0 1-16 8c-5.1 1.6-11 2.5-17.4 2.5a76.7 76.7 0 0 1-23.9-4c-1-.3-2.2-.2-3.2.3-3.9 2-8.3 3-13.3 3a31 31 0 0 1-18.2-5.5c-1.5-1-3.4-1-4.8 0a30.2 30.2 0 0 1-18 5.5 30 30 0 0 1-18.5-5.7c-1.5-1-3.5-1-5 0a30.8 30.8 0 0 1-18.6 5.7 30.2 30.2 0 0 1-25.8-13 4.1 4.1 0 0 0-6.8 0 30.9 30.9 0 0 1-25.8 13 31 31 0 0 1-17.5-5c-1.4-1-3.2-1-4.6 0-4.5 3-10.3 5-17.4 5a31 31 0 0 1-19.4-6.4"/><path stroke="#FFD000" stroke-linecap="round" stroke-linejoin="round" stroke-miterlimit="2" stroke-width="8.3" d="m87.4 146-9.9 6.9a13.8 13.8 0 0 1-19.2-3.4L7.6 77.2A13.8 13.8 0 0 1 11 57.9l10-7"/><g filter="url(#p)"><path stroke="url(#q)" stroke-linecap="round" stroke-linejoin="round" stroke-miterlimit="2" stroke-width="2.8" d="m87.4 146-9.9 6.9a13.8 13.8 0 0 1-19.2-3.4L7.6 77.2A13.8 13.8 0 0 1 11 57.9l10-7"/></g><g filter="url(#r)"><path stroke="url(#s)" stroke-linecap="round" stroke-linejoin="round" stroke-miterlimit="2" stroke-width="2.8" d="M117.3 24.7 113.4 14a13.8 13.8 0 0 0-17.7-8.3l-51.9 19a13.8 13.8 0 0 0-8.2 17.7l30.2 83a13.8 13.8 0 0 0 17.7 8.2l51.9-18.9a13.8 13.8 0 0 0 8.2-17.7l-13-35.6c-13-35.5 14.4-46 27-46a31 31 0 0 1 17.2 4.8 4 4 0 0 0 4.5 0 30 30 0 0 1 17-4.9c6.8 0 12.3 1.9 16.9 5 1.3.8 3.2.8 4.5 0a32.8 32.8 0 0 1 26.1-3.7c.8.2 1.6.2 2.3 0a33 33 0 0 1 25.6 3.3l1.8.6a3 3 0 0 1-1.8-.6c.8.5 1.5.6 1.9.6l.6.2.6-.2c.3 0 1 0 1.9-.6h-.1 0a32.6 32.6 0 0 1 26.6-3c.9.2 1.8.2 2.6 0 3-1 6.2-1.6 9.8-1.6 6.3 0 12 1.4 17.7 5.4 1.5 1 3.4 1 4.8 0a30.2 30.2 0 0 1 18-5.4c6.4 0 11.7 1.6 16 4a4 4 0 0 0 3.8.3 58.9 58.9 0 0 1 38.4-3.2 52 52 0 0 1 14.4 5.6h0a30.1 30.1 0 0 1 13 37.7c-.4 1.2-.3 2.5.3 3.6a39 39 0 0 1 4.9 19.5 41.6 41.6 0 0 1-16 33.1 47.5 47.5 0 0 1-16 8c-5.1 1.6-11 2.5-17.4 2.5a76.5 76.5 0 0 1-23.9-4c-1-.3-2.2-.2-3.2.3-3.9 2-8.3 3-13.3 3a31 31 0 0 1-18.2-5.5c-1.5-1-3.4-1-4.8 0a30.2 30.2 0 0 1-18.1 5.5c-7.7 0-13.7-2.2-18.4-5.7-1.5-1-3.5-1-5 0a30.8 30.8 0 0 1-18.6 5.7 30.2 30.2 0 0 1-25.8-13 4.1 4.1 0 0 0-6.8 0 30.9 30.9 0 0 1-25.8 13 31 31 0 0 1-17.5-5c-1.4-1-3.2-1-4.6 0-4.5 3-10.3 5-17.4 5a31 31 0 0 1-19.4-6.4"/></g></g><defs><linearGradient id="b" x1="30.1" x2="4.2" y1="63.7" y2="63.7" gradientUnits="userSpaceOnUse"><stop stop-color="#FF5900"/><stop offset="1" stop-color="#BBB694"/></linearGradient><linearGradient id="c" x1="25" x2="68.2" y1="34.1" y2="152.9" gradientUnits="userSpaceOnUse"><stop stop-color="#FE6F12"/><stop offset="1" stop-color="#FF2500"/></linearGradient><linearGradient id="d" x1="211.6" x2="211.6" y1="20.7" y2="119.4" gradientUnits="userSpaceOnUse"><stop stop-color="#FE6F12"/><stop offset="1" stop-color="#FF2500"/></linearGradient><linearGradient id="f" x1="2106620000" x2="2106620000" y1="125464000" y2="144409000" gradientUnits="userSpaceOnUse"><stop stop-color="#fff"/><stop offset="1" stop-color="#FFFAB1"/></linearGradient><linearGradient id="j" x1="200.5" x2="200.5" y1="43.2" y2="100.2" gradientUnits="userSpaceOnUse"><stop stop-color="#00D0FF"/><stop offset="1" stop-color="#0087FF"/></linearGradient><linearGradient id="m" x1="70.7" x2="84.2" y1="57.4" y2="94.4" gradientUnits="userSpaceOnUse"><stop stop-color="#00D0FF"/><stop offset="1" stop-color="#0087FF"/></linearGradient><linearGradient id="o" x1="117.6" x2="85.9" y1="106.8" y2="19.7" gradientUnits="userSpaceOnUse"><stop stop-color="#00D0FF"/><stop offset="1" stop-color="#0087FF"/></linearGradient><linearGradient id="q" x1="587542000000" x2="594684000000" y1="-310433000000" y2="-300227000000" gradientUnits="userSpaceOnUse"><stop stop-color="#fff"/><stop offset="1" stop-color="#FFFAB1"/></linearGradient><linearGradient id="s" x1="787639000000000" x2="787639000000000" y1="35850500000000" y2="41263500000000" gradientUnits="userSpaceOnUse"><stop stop-color="#fff"/><stop offset="1" stop-color="#FFFAB1"/></linearGradient><filter id="e" width="7.9" height="5.4" x="271.1" y="17.5" color-interpolation-filters="sRGB" filterUnits="userSpaceOnUse"><feFlood flood-opacity="0" result="BackgroundImageFix"/><feBlend in="SourceGraphic" in2="BackgroundImageFix" result="shape"/><feGaussianBlur result="effect1_foregroundBlur_1_123" stdDeviation=".5"/></filter><filter id="g" width="295.4" height="86.9" x="139.1" y="32.6" color-interpolation-filters="sRGB" filterUnits="userSpaceOnUse"><feFlood flood-opacity="0" result="BackgroundImageFix"/><feBlend in="SourceGraphic" in2="BackgroundImageFix" result="shape"/><feGaussianBlur result="effect1_foregroundBlur_1_123" stdDeviation="1.4"/></filter><filter id="h" width="295.4" height="86.9" x="139.1" y="27.1" color-interpolation-filters="sRGB" filterUnits="userSpaceOnUse"><feFlood flood-opacity="0" result="BackgroundImageFix"/><feBlend in="SourceGraphic" in2="BackgroundImageFix" result="shape"/><feGaussianBlur result="effect1_foregroundBlur_1_123" stdDeviation="1.4"/></filter><filter id="i" width="316.5" height="108.1" x="128.5" y="16.5" color-interpolation-filters="sRGB" filterUnits="userSpaceOnUse"><feFlood flood-opacity="0" result="BackgroundImageFix"/><feBlend in="SourceGraphic" in2="BackgroundImageFix" result="shape"/><feGaussianBlur result="effect1_foregroundBlur_1_123" stdDeviation="10.1"/></filter><filter id="k" width="131" height="83.4" x="9.3" y="33.5" color-interpolation-filters="sRGB" filterUnits="userSpaceOnUse"><feFlood flood-opacity="0" result="BackgroundImageFix"/><feBlend in="SourceGraphic" in2="BackgroundImageFix" result="shape"/><feGaussianBlur result="effect1_foregroundBlur_1_123" stdDeviation="1.4"/></filter><filter id="l" width="95.6" height="97.7" x="38.5" y="19.3" color-interpolation-filters="sRGB" filterUnits="userSpaceOnUse"><feFlood flood-opacity="0" result="BackgroundImageFix"/><feBlend in="SourceGraphic" in2="BackgroundImageFix" result="shape"/><feGaussianBlur result="effect1_foregroundBlur_1_123" stdDeviation="10.1"/></filter><filter id="n" width="168.8" height="121.1" x="-9.6" y="9.1" color-interpolation-filters="sRGB" filterUnits="userSpaceOnUse"><feFlood flood-opacity="0" result="BackgroundImageFix"/><feBlend in="SourceGraphic" in2="BackgroundImageFix" result="shape"/><feGaussianBlur result="effect1_foregroundBlur_1_123" stdDeviation="10.1"/></filter><filter id="p" width="87.1" height="109.2" x="2.7" y="48.5" color-interpolation-filters="sRGB" filterUnits="userSpaceOnUse"><feFlood flood-opacity="0" result="BackgroundImageFix"/><feBlend in="SourceGraphic" in2="BackgroundImageFix" result="shape"/><feGaussianBlur result="effect1_foregroundBlur_1_123" stdDeviation=".5"/></filter><filter id="r" width="416.9" height="134.2" x="32.3" y="2.6" color-interpolation-filters="sRGB" filterUnits="userSpaceOnUse"><feFlood flood-opacity="0" result="BackgroundImageFix"/><feBlend in="SourceGraphic" in2="BackgroundImageFix" result="shape"/><feGaussianBlur result="effect1_foregroundBlur_1_123" stdDeviation=".5"/></filter><clipPath id="a"><path fill="#fff" d="M0 0h452v166H0z"/></clipPath></defs></svg>
